<?xml version="1.0" encoding="UTF-8" standalone="no"?>
<svg
   version="1.1"
   id="Layer_1"
   x="0px"
   y="0px"
   width="880"
   viewBox="0 0 880 880"
   enable-background="new 0 0 1024 1024"
   xml:space="preserve"
   sodipodi:docname="kun-shell.logo.svg"
   height="880"
   inkscape:version="1.4.3 (0d15f75042, 2025-12-25)"
   xmlns:inkscape="http://www.inkscape.org/namespaces/inkscape"
   xmlns:sodipodi="http://sodipodi.sourceforge.net/DTD/sodipodi-0.dtd"
   xmlns="http://www.w3.org/2000/svg"
   xmlns:svg="http://www.w3.org/2000/svg"><defs
   id="defs15" /><sodipodi:namedview
   id="namedview15"
   pagecolor="#ffffff"
   bordercolor="#111111"
   borderopacity="1"
   inkscape:showpageshadow="0"
   inkscape:pageopacity="0"
   inkscape:pagecheckerboard="1"
   inkscape:deskcolor="#d1d1d1"
   inkscape:zoom="0.60153335"
   inkscape:cx="159.59215"
   inkscape:cy="484.59491"
   inkscape:window-width="1920"
   inkscape:window-height="1052"
   inkscape:window-x="0"
   inkscape:window-y="28"
   inkscape:window-maximized="1"
   inkscape:current-layer="Layer_1" />















<g
   id="g1"
   style="fill:#0b2c61;fill-opacity:1"><path
     fill="#000000"
     opacity="1"
     stroke="none"
     d="m 487.65812,163.28946 c -5.62946,23.69014 -15.93604,44.63337 -31.89977,62.46809 -12.18066,13.60828 -26.61555,24.65558 -42.36548,33.92932 -17.42963,10.26273 -35.77693,18.5011 -54.96973,24.87927 -5.4356,1.80637 -6.9779,4.5568 -6.65771,12.51773 47.30005,-11.82876 88.88763,-33.16467 123.06298,-69.45642 1.57556,4.14621 0.98993,7.04016 0.38886,9.89487 -7.34985,34.90848 -26.78723,60.71683 -58.21026,77.62402 -23.86863,12.84253 -49.20792,21.06678 -76.01325,24.85901 -3.84434,0.54383 -7.47767,0.95395 -8.87559,5.68421 -1.31204,4.43963 -0.88427,5.76986 3.74613,5.33178 7.44638,-0.70456 14.86987,-1.80194 22.24685,-3.06207 27.2883,-4.66156 53.26996,-13.26474 77.79776,-26.168 2.93906,-1.54611 2.96216,-1.5022 6.21906,-1.65811 0.79736,3.73761 -1.26703,6.70792 -2.84204,9.66357 -15.86692,29.77671 -41.09272,46.87565 -73.59687,53.97873 -17.00021,3.715 -34.19037,5.22971 -51.58593,4.14026 -4.08872,-0.25604 -8.6619,3.56149 -9.09983,7.47626 -0.30035,2.68475 1.53006,3.08429 3.47257,3.06192 12.32635,-0.14175 24.66617,-0.0468 36.97387,-0.62152 12.98353,-0.60623 25.75245,-3.17636 38.55234,-5.33756 1.28659,-0.21725 2.6275,-0.62997 4.36096,0.86255 -2.58959,4.29456 -5.77441,8.1193 -9.77594,11.38001 -19.30416,15.73056 -41.80297,24.39038 -65.70291,30.15658 -33.41504,8.06189 -66.20114,17.97129 -96.91098,33.83805 -31.03515,16.03479 -58.33809,36.6466 -79.54316,64.71747 -11.70127,15.48998 -20.8581,32.24792 -22.65627,51.98309 -1.86208,20.4364 4.96996,38.32049 17.59174,54.12671 9.03979,11.32049 20.84431,19.60571 32.18086,28.34045 18.20613,14.02765 32.06154,31.3761 41.12572,52.51593 0.45593,1.06336 0.80307,2.18439 1.07824,3.30859 0.10605,0.43323 -0.13015,0.95014 -0.36328,2.34064 -30.77475,-2.36706 -58.76788,-11.42853 -82.69247,-32.9082 -12.724,30.47796 -33.364395,52.45251 -62.491945,67.17077 -1.65197,-4.81408 -0.96588,-9.10082 -0.67099,-13.27477 1.68766,-23.88709 8.87886,-46.26081 18.54966,-68.02039 7.37994,-16.60504 13.8134,-33.58844 15.70559,-51.87915 0.96045,-9.28412 1.10868,-18.60443 0.77631,-27.93823 -0.7117,-19.98609 -0.84976,-39.94849 2.18541,-59.80908 4.984395,-32.61542 18.206205,-61.73255 36.972085,-88.62 13.00085,-18.62741 27.5768,-35.94946 42.89989,-52.64707 23.7158,-25.84323 45.23314,-53.38711 64.08769,-82.93698 23.03955,-36.10885 54.80746,-60.95672 94.34073,-77.08673 30.5607,-12.46914 59.97531,-27.47082 86.67767,-47.23819 25.4047,-18.80668 47.61045,-40.62274 64.13315,-67.82776 0.89429,-1.47245 1.4939,-3.4608 4.60852,-3.37381 1.76935,14.56774 0.48145,28.93207 -2.81024,43.61416 z"
     id="path1"
     style="fill:#0b2c61;fill-opacity:1" /><g
     id="g17"
     style="fill:#0b2c61;fill-opacity:1"
     transform="translate(-72.387225,-62.51012)"><path
       fill="#000000"
       opacity="1"
       stroke="none"
       d="m 673.99811,732.32312 c -9.82978,-0.0147 -19.16736,-0.25696 -28.48688,0.0494 -4.74304,0.15594 -6.07043,-1.6427 -5.89722,-6.10382 0.28131,-7.24494 0.0758,-14.50885 0.0758,-21.94879 -2.74829,0.52679 -3.61597,2.29333 -4.6499,3.67743 -20.47235,27.40466 -48.49146,34.28045 -80.69953,29.70587 -17.07275,-2.42481 -31.90387,-9.42749 -43.37842,-22.51905 -13.40502,-15.294 -19.88275,-33.60168 -20.11068,-53.6261 -0.50629,-44.47906 -0.18415,-88.96728 -0.32276,-133.45135 -0.0125,-3.99542 1.53864,-5.22644 5.30411,-5.19537 15.66016,0.12933 31.32318,0.21527 46.98193,0.0361 4.83979,-0.0554 6.23261,1.7785 6.22864,6.47925 -0.0347,40.98498 0.0314,81.97076 0.29914,122.95489 0.11767,18.00873 11.12048,32.5882 26.64117,36.172 31.32434,7.23291 55.41736,-11.60193 55.58923,-43.80328 0.20362,-38.15253 0.0746,-76.30683 0.0932,-114.46039 0.004,-7.42231 0.0106,-7.36786 7.44165,-7.33924 14.9942,0.0576 29.98883,0.0309 44.98315,0.0776 6.56384,0.0204 6.92438,0.35358 6.92914,6.65808 0.0497,65.47693 0.0402,130.95392 0.19519,196.43054 0.0112,4.7182 -1.32538,6.75049 -6.22681,6.27814 -3.46698,-0.33411 -6.99158,-0.0697 -10.99017,-0.0719 z"
       id="path2"
       style="fill:#0b2c61;fill-opacity:1" /><path
       fill="#000000"
       opacity="1"
       stroke="none"
       d="m 779.26648,545.26135 c 0.12897,1.52497 -0.22302,2.78876 1.01715,3.61206 2.03339,0.10578 2.72723,-1.64984 3.70197,-2.87744 14.58398,-18.36731 33.97766,-27.43762 57.00665,-28.95746 20.80957,-1.37341 40.55743,1.90711 57.48633,15.35144 13.99438,11.11389 21.32458,26.05353 24.82013,43.22364 2.00122,9.83001 2.79657,19.74334 2.78997,29.76355 -0.0265,39.98474 0.0299,79.96948 0.0401,119.95422 0.002,7.0249 -0.0323,7.00781 -6.81341,6.99799 -14.99439,-0.0217 -29.98883,-0.0176 -44.98322,-0.0379 -6.5216,-0.009 -6.57989,-0.0756 -6.58465,-6.79468 -0.0283,-39.98516 -0.0618,-79.97027 -0.0682,-119.95544 -10e-4,-6.74896 -1.14111,-13.29614 -3.82409,-19.4602 -6.44556,-14.80842 -21.13068,-22.38514 -39.60431,-20.65955 -19.49085,1.82062 -32.96796,12.80139 -37.3144,30.79736 -1.36578,5.65515 -1.60858,11.52893 -1.60876,17.36713 -0.002,37.31952 0.008,74.63904 0.008,111.95856 -6e-5,6.75445 -0.0138,6.76404 -6.97308,6.76562 -15.32764,0.004 -30.65747,-0.14953 -45.98151,0.084 -4.49463,0.0685 -5.65668,-1.55347 -5.65173,-5.80847 0.0764,-65.97528 0.0591,-131.95081 -0.087,-197.92597 -0.01,-4.4378 1.46649,-5.78693 5.75702,-5.73083 13.82562,0.18066 27.65698,0.16961 41.48236,-0.0316 4.12897,-0.0601 5.66339,1.32373 5.4613,5.46527 -0.26757,5.48505 -0.0761,10.99256 -0.077,16.89862 z"
       id="path3"
       style="fill:#0b2c61;fill-opacity:1" /></g><path
     fill="#000000"
     opacity="1"
     stroke="none"
     d="m 57.128675,473.90187 c -0.82158,-18.39228 0.0507,-36.2435 3.01724,-53.81855 -2.93577,-1.19012 -4.03515,0.68897 -5.32075,1.77817 -6.8711,5.82141 -13.88895,11.43592 -21.70202,15.96579 -1.68327,0.97592 -3.48974,2.64432 -5.484,1.46396 -2.079188,-1.23062 -1.257815,-3.61062 -1.021663,-5.5021 3.666693,-29.36856 16.141643,-54.81003 37.383963,-74.96695 10.159,-9.63987 13.84171,-21.08628 17.14957,-33.35367 3.85577,-14.29935 7.10245,-28.76798 7.78779,-43.63556 0.96372,-20.90622 -5.45451,-49.53314 -34.48416,-62.24124 -1.74242,-0.76273 -4.28503,-1.15326 -4.35637,-3.58618 -0.0789,-2.69196 2.29765,-3.88999 4.33723,-5.01224 15.30184,-1.12051 28.73388,-4.9416 42.75936,-6.66336 19.884825,-1.67105 38.414575,1.80075 54.673245,14.35315 15.21384,11.74572 22.7851,27.8157 27.04532,45.92978 6.56358,27.90771 1.60969,54.9516 -6.58766,81.59887 -8.11553,26.38117 -21.95188,49.8389 -37.89547,72.2276 -18.00764,25.28717 -34.562395,51.42768 -44.348975,81.26294 -7.41922,22.61817 -11.507,45.78852 -12.42976,69.55036 -0.0742,1.91058 0.54597,4.00006 -1.86458,6.7351 -12.56773,-33.2539 -18.97485,-66.78277 -18.65831,-102.08587"
     id="path4"
     sodipodi:nodetypes="ccsssssssssscsssssscc"
     style="fill:#0b2c61;fill-opacity:1" /><path
     fill="#000000"
     opacity="1"
     stroke="none"
     d="m 268.51792,468.53608 c 2.59989,0.47022 3.40683,2.47943 4.50914,4.0633 15.97606,22.95575 31.84161,45.98858 47.85061,68.92126 27.34906,39.17725 54.78967,78.29053 82.15857,117.45392 2.13153,3.05011 5.01892,5.77606 5.22933,9.77063 -1.79158,1.61249 -3.7065,1.04291 -5.46109,1.04437 -30.14352,0.0245 -60.28726,-0.0481 -90.43032,0.0665 -3.55938,0.0136 -5.72342,-1.1012 -7.74041,-4.08612 -34.95598,-51.72964 -69.68358,-103.61545 -105.38706,-154.83627 -3.98553,-5.71772 -3.93643,-5.96228 1.75182,-9.48023 21.29868,-13.17242 43.53369,-24.42895 67.51941,-32.91736 z"
     id="path5"
     style="fill:#0b2c61;fill-opacity:1" /><path
     fill="#000000"
     opacity="1"
     stroke="none"
     d="m 165.8986,631.48133 c 0.003,4.95209 0.003,9.40601 0.003,13.75983 -3.49324,1.40216 -5.5925,-0.6466 -7.73515,-1.96503 -29.77387,-18.32165 -37.53127,-53.91149 -18.71466,-84.41528 5.84199,-9.47052 13.28114,-17.43542 21.22644,-25.0437 1.0749,-1.02936 2.12626,-2.14258 5.21661,-2.16754 0,33.11377 0,66.22369 0.003,99.83172 z"
     id="path6"
     style="fill:#0b2c61;fill-opacity:1" /></g><g
   id="g16"
   transform="translate(-28.438672,-108.51012)"
   style="fill:#056983;fill-opacity:1"><path
     fill="#000000"
     opacity="1"
     stroke="none"
     d="m 759.84825,406.38697 c 3.85258,9.63288 1.9633,23.15365 -11.37444,30.55236 -20.48651,11.36434 -40.75703,23.12874 -60.85777,35.17741 -8.32104,4.9878 -16.71308,9.8838 -25.28806,14.4143 -10.06037,5.3153 -21.58074,0.7717 -24.95866,-9.4158 -1.98716,-5.9928 -0.36329,-15.56134 6.9903,-19.99668 11.60002,-6.9966 23.28865,-13.83621 35.06318,-20.53355 10.98059,-6.24577 21.91648,-12.57013 32.86501,-18.87207 0.54039,-0.31105 1.14516,-0.60632 1.38443,-1.50653 -1.45586,-1.82915 -3.70481,-2.72098 -5.72589,-3.83862 -12.73393,-7.04176 -25.53961,-13.95102 -38.19426,-21.13977 -8.35207,-4.74454 -16.94664,-9.05874 -25.1931,-14.00237 -6.41535,-3.84596 -9.37604,-10.34801 -8.11257,-18.08059 1.10939,-6.78966 6.16504,-11.87234 13.39001,-13.14606 5.3509,-0.94333 10.31394,0.36074 15.03053,3.01292 19.31062,10.85849 38.64009,21.68382 57.99725,32.4591 8.96037,4.98784 18.01741,9.80176 26.99668,14.7561 4.25134,2.34569 7.71352,5.5402 9.98736,10.15985 z"
     id="path4-6"
     style="fill:#056983;fill-opacity:1;stroke-width:0.549746" /><path
     fill="#000000"
     opacity="1"
     stroke="none"
     d="m 868.22962,455.49704 c 2.30427,-0.0541 4.43105,-0.0513 6.50641,0.92549 4.36501,2.05426 7.22352,7.62919 7.42844,14.52331 0.23412,7.8759 -2.14168,13.9074 -6.59304,16.6224 -1.23686,0.7543 -2.51354,1.2037 -3.87065,1.2027 -33.01757,-0.025 -66.03518,0.01 -99.05272,-0.048 -4.27807,-0.01 -7.71256,-3.0162 -9.36336,-9.3712 -2.74416,-10.5641 1.03969,-22.58007 8.32343,-23.49589 2.6517,-0.33338 5.29398,-0.31158 7.94197,-0.31355 29.50254,-0.0222 59.00509,-0.032 88.67952,-0.0453 z"
     id="path5-7"
     style="fill:#056983;fill-opacity:1;stroke-width:0.436041" /></g></svg>
