<?xml version="1.0" encoding="UTF-8" standalone="no"?>
<!-- https://kun-lang.crazydan.io -->
<svg xmlns="http://www.w3.org/2000/svg" width="680" height="680" viewBox="0 0 680 680">
  <g fill="#eb3c70">
    <path d="m 568.60749,63.28946 c -5.62946,23.69014 -15.93603,44.63337 -31.89977,62.46809 -12.18066,13.60828 -26.61555,24.65558 -42.36547,33.92932 -17.42963,10.26273 -35.77693,18.5011 -54.96973,24.87927 -5.43561,1.80637 -6.9779,4.5568 -6.65772,12.51773 47.30005,-11.82876 88.88764,-33.16467 123.06298,-69.45642 1.57556,4.14621 0.98993,7.04016 0.38887,9.89487 -7.34986,34.90848 -26.78724,60.71683 -58.21027,77.62402 -23.86862,12.84253 -49.20792,21.06678 -76.01325,24.85901 -3.84434,0.54383 -7.47767,0.95395 -8.87559,5.68421 -1.31204,4.43963 -0.88427,5.76986 3.74613,5.33178 7.44638,-0.70456 14.86987,-1.80194 22.24685,-3.06207 27.2883,-4.66156 53.26996,-13.26474 77.79776,-26.168 2.93906,-1.54611 2.96216,-1.5022 6.21906,-1.65811 0.79736,3.73761 -1.26703,6.70792 -2.84204,9.66357 -15.86692,29.77671 -41.09272,46.87565 -73.59687,53.97873 -17.00021,3.715 -34.19037,5.22971 -51.58593,4.14026 -4.08872,-0.25604 -8.6619,3.56149 -9.09983,7.47626 -0.30035,2.68475 1.53006,3.08429 3.47257,3.06192 12.32635,-0.14175 24.66617,-0.0468 36.97387,-0.62152 12.98353,-0.60623 25.75245,-3.17636 38.55234,-5.33756 1.28659,-0.21725 2.6275,-0.62997 4.36096,0.86255 -2.58959,4.29456 -5.77441,8.1193 -9.77594,11.38001 -19.30416,15.73056 -41.80297,24.39038 -65.70291,30.15658 -33.41504,8.06189 -66.20114,17.97129 -96.91098,33.83805 -31.03515,16.03479 -58.33809,36.6466 -79.54316,64.71747 -11.70127,15.48998 -20.8581,32.24792 -22.65627,51.98309 -1.86208,20.4364 4.96996,38.32049 17.59174,54.12671 9.03979,11.32049 20.84431,19.60571 32.18086,28.34045 18.20613,14.02765 32.06154,31.3761 41.12572,52.51593 0.45593,1.06336 0.80307,2.18439 1.07824,3.30859 0.10605,0.43323 -0.13015,0.95014 -0.36328,2.34064 -30.77475,-2.36706 -58.76788,-11.42853 -82.69247,-32.9082 -12.724,30.47796 -33.36439,52.45251 -62.49194,67.17077 -1.65197,-4.81408 -0.96588,-9.10082 -0.67099,-13.27477 1.68766,-23.88709 8.87886,-46.26081 18.54966,-68.02039 7.37994,-16.60504 13.8134,-33.58844 15.70559,-51.87915 0.96045,-9.28412 1.10868,-18.60443 0.77631,-27.93823 -0.7117,-19.98609 -0.84976,-39.94849 2.18541,-59.80908 4.98439,-32.61542 18.2062,-61.73255 36.97208,-88.62 13.00085,-18.62741 27.5768,-35.94946 42.89989,-52.64707 23.7158,-25.84323 45.23314,-53.38711 64.08769,-82.93698 23.03955,-36.10885 54.80746,-60.95672 94.34073,-77.08673 30.5607,-12.46914 59.97531,-27.47082 86.67767,-47.23819 25.4047,-18.80668 47.61045,-40.62274 64.13315,-67.82776 0.89429,-1.47245 1.4939,-3.4608 4.60852,-3.37381 1.76935,14.56774 0.48145,28.93207 -2.81024,43.61416 z"/>
    <path d="m 138.07805,373.90187 c -0.82158,-18.39228 0.0507,-36.2435 3.01724,-53.81855 -2.93577,-1.19012 -4.03515,0.68897 -5.32075,1.77817 -6.8711,5.82141 -13.88895,11.43592 -21.70202,15.96579 -1.68327,0.97592 -3.48974,2.64432 -5.484,1.46396 -2.07919,-1.23062 -1.25782,-3.61062 -1.02166,-5.5021 3.66669,-29.36856 16.14164,-54.81003 37.38396,-74.96695 10.159,-9.63987 13.84171,-21.08628 17.14957,-33.35367 3.85577,-14.29935 7.10245,-28.76798 7.78779,-43.63556 0.96372,-20.90622 -5.45451,-49.53314 -34.48416,-62.24124 -1.74242,-0.76273 -4.28503,-1.15326 -4.35637,-3.58618 -0.0789,-2.69196 2.29765,-3.88999 4.33723,-5.01224 15.30184,-1.12051 28.73388,-4.9416 42.75936,-6.66336 19.88482,-1.67105 38.41457,1.80075 54.67324,14.35315 15.21384,11.74572 22.7851,27.8157 27.04532,45.92978 6.56358,27.90771 1.60969,54.9516 -6.58766,81.59887 -8.11553,26.38117 -21.95187,49.8389 -37.89547,72.2276 -18.00764,25.28717 -34.56239,51.42768 -44.34897,81.26294 -7.41922,22.61817 -11.507,45.78852 -12.42976,69.55036 -0.0742,1.91058 0.54597,4.00006 -1.86458,6.7351 -12.56773,-33.2539 -18.97485,-66.78277 -18.65831,-102.08587"/>
    <path d="m 246.84797,531.48133 c 0.003,4.95209 0.003,9.40601 0.003,13.75983 -3.49324,1.40216 -5.5925,-0.6466 -7.73515,-1.96503 -29.77387,-18.32165 -37.53127,-53.91149 -18.71466,-84.41528 5.84199,-9.47052 13.28114,-17.43542 21.22644,-25.0437 1.0749,-1.02936 2.12626,-2.14258 5.21661,-2.16754 0,33.11377 0,66.22369 0.003,99.83172 z"/>
  </g>
  <g fill="#ffc152">
    <path d="m 450.4602,534.78744 c 3.85258,9.63288 1.9633,23.15365 -11.37443,30.55236 -20.48652,11.36434 -40.75703,23.12874 -60.85778,35.17741 -8.32103,4.9878 -16.71308,9.8838 -25.28806,14.4143 -10.06037,5.3153 -21.58074,0.7717 -24.95866,-9.4158 -1.98716,-5.9928 -0.36329,-15.56134 6.9903,-19.99668 11.60002,-6.9966 23.28865,-13.83621 35.06318,-20.53355 10.98059,-6.24577 21.91648,-12.57013 32.86501,-18.87207 0.54039,-0.31105 1.14516,-0.60632 1.38443,-1.50653 -1.45586,-1.82915 -3.70481,-2.72098 -5.72589,-3.83862 -12.73393,-7.04176 -25.53961,-13.95102 -38.19426,-21.13977 -8.35207,-4.74454 -16.94664,-9.05874 -25.1931,-14.00237 -6.41535,-3.84596 -9.37604,-10.34801 -8.11257,-18.08059 1.10939,-6.78966 6.16504,-11.87234 13.39001,-13.14606 5.3509,-0.94333 10.31394,0.36074 15.03053,3.01292 19.31062,10.85849 38.64009,21.68382 57.99725,32.4591 8.96037,4.98784 18.01741,9.80176 26.99668,14.7561 4.25135,2.34569 7.71353,5.5402 9.98736,10.15985 z"/>
    <path d="m 558.84158,583.89751 c 2.30426,-0.0541 4.43105,-0.0513 6.5064,0.92549 4.36501,2.05426 7.22352,7.62919 7.42845,14.52331 0.23412,7.8759 -2.14168,13.9074 -6.59304,16.6224 -1.23686,0.7543 -2.51354,1.2037 -3.87065,1.2027 -33.01757,-0.025 -66.03518,0.01 -99.05272,-0.048 -4.27808,-0.01 -7.71256,-3.0162 -9.36337,-9.3712 -2.74415,-10.5641 1.0397,-22.58007 8.32344,-23.49589 2.6517,-0.33338 5.29397,-0.31158 7.94196,-0.31355 29.50255,-0.0222 59.00509,-0.032 88.67953,-0.0453 z"/>
  </g>
</svg>
